<mxfile host="65bd71144e">
    <diagram id="v7DR3OZrTKcgggxZ--NC" name="Page-1">
        <mxGraphModel dx="2136" dy="-166" grid="1" gridSize="10" guides="1" tooltips="1" connect="1" arrows="1" fold="1" page="1" pageScale="1" pageWidth="850" pageHeight="1100" math="0" shadow="0">
            <root>
                <mxCell id="0"/>
                <mxCell id="1" parent="0"/>
                <mxCell id="119" value="" style="edgeStyle=none;html=1;strokeWidth=3;fontSize=18;entryX=0;entryY=0.5;entryDx=0;entryDy=0;" edge="1" parent="1" source="120" target="143">
                    <mxGeometry relative="1" as="geometry"/>
                </mxCell>
                <mxCell id="120" value="&lt;font style=&quot;font-size: 18px;&quot;&gt;INÍCIO&lt;/font&gt;" style="rounded=1;whiteSpace=wrap;html=1;arcSize=50;strokeWidth=3;fontSize=18;" vertex="1" parent="1">
                    <mxGeometry x="-810" y="1341.25" width="90" height="60" as="geometry"/>
                </mxCell>
                <mxCell id="121" value="" style="edgeStyle=none;html=1;fontSize=18;strokeWidth=3;" edge="1" parent="1" source="122" target="129">
                    <mxGeometry relative="1" as="geometry"/>
                </mxCell>
                <mxCell id="122" value="&lt;span style=&quot;font-size: 18px;&quot;&gt;Cacula a potência disponível, Pd, de cada uma das barras sorteadas, considerando&lt;br style=&quot;font-size: 18px;&quot;&gt;suas potência limite para operação segura&lt;/span&gt;" style="rounded=0;whiteSpace=wrap;html=1;strokeWidth=3;fontSize=18;" vertex="1" parent="1">
                    <mxGeometry x="-30" y="1300" width="310" height="131.25" as="geometry"/>
                </mxCell>
                <mxCell id="123" value="" style="edgeStyle=none;html=1;strokeWidth=3;fontSize=18;" edge="1" parent="1" source="124" target="122">
                    <mxGeometry relative="1" as="geometry"/>
                </mxCell>
                <mxCell id="124" value="&lt;span style=&quot;font-size: 18px;&quot;&gt;Sorteia uma quantidade i de barras PQ&lt;/span&gt;" style="rounded=0;whiteSpace=wrap;html=1;strokeWidth=3;fontSize=18;" vertex="1" parent="1">
                    <mxGeometry x="-300" y="1301.25" width="200" height="140" as="geometry"/>
                </mxCell>
                <mxCell id="125" value="" style="edgeStyle=none;html=1;strokeWidth=3;fontSize=18;" edge="1" parent="1" source="127" target="132">
                    <mxGeometry relative="1" as="geometry"/>
                </mxCell>
                <mxCell id="126" style="edgeStyle=none;html=1;exitX=1;exitY=0.5;exitDx=0;exitDy=0;entryX=1;entryY=0.5;entryDx=0;entryDy=0;strokeWidth=3;fontSize=18;" edge="1" parent="1" source="127" target="129">
                    <mxGeometry relative="1" as="geometry">
                        <Array as="points">
                            <mxPoint x="720" y="1616.25"/>
                            <mxPoint x="720" y="1365.25"/>
                        </Array>
                    </mxGeometry>
                </mxCell>
                <mxCell id="127" value="&lt;font style=&quot;font-size: 18px;&quot;&gt;Uma das&lt;br style=&quot;font-size: 18px;&quot;&gt;barras tem&lt;br style=&quot;font-size: 18px;&quot;&gt;Pd&amp;nbsp;&amp;lt;= 0?&lt;/font&gt;" style="rhombus;whiteSpace=wrap;html=1;strokeWidth=3;fontSize=18;" vertex="1" parent="1">
                    <mxGeometry x="382.5" y="1541.25" width="235" height="150" as="geometry"/>
                </mxCell>
                <mxCell id="128" value="" style="edgeStyle=none;html=1;strokeWidth=3;fontSize=18;" edge="1" parent="1" source="129" target="127">
                    <mxGeometry relative="1" as="geometry"/>
                </mxCell>
                <mxCell id="129" value="&lt;span style=&quot;font-size: 18px;&quot;&gt;Sorteia o consumo de potência de um eletroposto e insere simultaneamente em todas as barras selecionadas&lt;/span&gt;" style="rounded=0;whiteSpace=wrap;html=1;strokeWidth=3;fontSize=18;" vertex="1" parent="1">
                    <mxGeometry x="370" y="1300" width="260" height="131.25" as="geometry"/>
                </mxCell>
                <mxCell id="130" style="edgeStyle=none;html=1;exitX=0.5;exitY=0;exitDx=0;exitDy=0;strokeWidth=3;fontSize=18;entryX=0.5;entryY=1;entryDx=0;entryDy=0;" edge="1" parent="1" source="132" target="124">
                    <mxGeometry relative="1" as="geometry">
                        <mxPoint x="80" y="1471.25" as="targetPoint"/>
                        <Array as="points">
                            <mxPoint x="125" y="1491.25"/>
                            <mxPoint x="-200" y="1491.25"/>
                        </Array>
                    </mxGeometry>
                </mxCell>
                <mxCell id="131" style="edgeStyle=none;html=1;exitX=0.5;exitY=1;exitDx=0;exitDy=0;entryX=0.5;entryY=0;entryDx=0;entryDy=0;strokeWidth=3;fontSize=18;" edge="1" parent="1" source="132" target="149">
                    <mxGeometry relative="1" as="geometry"/>
                </mxCell>
                <mxCell id="132" value="&lt;span style=&quot;font-size: 18px;&quot;&gt;500 iterações?&lt;/span&gt;" style="rhombus;whiteSpace=wrap;html=1;strokeWidth=3;fontSize=18;" vertex="1" parent="1">
                    <mxGeometry x="5" y="1541.25" width="240" height="150" as="geometry"/>
                </mxCell>
                <mxCell id="133" style="edgeStyle=none;html=1;exitX=0.5;exitY=0;exitDx=0;exitDy=0;entryX=0.5;entryY=1;entryDx=0;entryDy=0;strokeWidth=3;fontSize=18;" edge="1" parent="1" source="134" target="124">
                    <mxGeometry relative="1" as="geometry"/>
                </mxCell>
                <mxCell id="134" value="&lt;span style=&quot;font-size: 18px;&quot;&gt;Incrementa i em um&lt;/span&gt;" style="rounded=0;whiteSpace=wrap;html=1;strokeWidth=3;fontSize=18;" vertex="1" parent="1">
                    <mxGeometry x="-295" y="1560" width="190" height="112.5" as="geometry"/>
                </mxCell>
                <mxCell id="135" style="edgeStyle=none;html=1;exitX=0.5;exitY=0;exitDx=0;exitDy=0;entryX=0.5;entryY=1;entryDx=0;entryDy=0;strokeWidth=3;fontSize=18;" edge="1" parent="1" source="137" target="134">
                    <mxGeometry relative="1" as="geometry"/>
                </mxCell>
                <mxCell id="136" style="edgeStyle=none;html=1;exitX=0;exitY=0.5;exitDx=0;exitDy=0;entryX=1;entryY=0.5;entryDx=0;entryDy=0;strokeWidth=3;fontSize=18;" edge="1" parent="1" source="137" target="140">
                    <mxGeometry relative="1" as="geometry"/>
                </mxCell>
                <mxCell id="137" value="&lt;span style=&quot;font-size: 18px;&quot;&gt;Quantidadede&lt;br style=&quot;font-size: 18px;&quot;&gt;barras de cargas&lt;br style=&quot;font-size: 18px;&quot;&gt;&amp;gt;= i?&lt;/span&gt;" style="rhombus;whiteSpace=wrap;html=1;strokeWidth=3;fontSize=18;" vertex="1" parent="1">
                    <mxGeometry x="-320" y="1751.25" width="240" height="150" as="geometry"/>
                </mxCell>
                <mxCell id="138" value="" style="edgeStyle=none;html=1;strokeWidth=3;fontSize=18;" edge="1" parent="1" source="140" target="145">
                    <mxGeometry relative="1" as="geometry"/>
                </mxCell>
                <mxCell id="139" value="" style="edgeStyle=none;html=1;strokeWidth=3;fontSize=18;" edge="1" parent="1" source="140" target="141">
                    <mxGeometry relative="1" as="geometry"/>
                </mxCell>
                <mxCell id="140" value="&lt;span style=&quot;font-size: 18px;&quot;&gt;Todos os anos&lt;br&gt;analisados?&lt;/span&gt;" style="rhombus;whiteSpace=wrap;html=1;strokeWidth=3;fontSize=18;" vertex="1" parent="1">
                    <mxGeometry x="-616.87" y="1751.25" width="240" height="150" as="geometry"/>
                </mxCell>
                <mxCell id="141" value="&lt;font style=&quot;font-size: 18px;&quot;&gt;FIM&lt;/font&gt;" style="rounded=1;whiteSpace=wrap;html=1;arcSize=50;strokeWidth=3;fontSize=18;" vertex="1" parent="1">
                    <mxGeometry x="-810" y="1796.25" width="90" height="60" as="geometry"/>
                </mxCell>
                <mxCell id="142" style="edgeStyle=none;html=1;exitX=1;exitY=0.5;exitDx=0;exitDy=0;entryX=0;entryY=0.5;entryDx=0;entryDy=0;strokeWidth=3;fontSize=18;" edge="1" parent="1" source="143" target="124">
                    <mxGeometry relative="1" as="geometry"/>
                </mxCell>
                <mxCell id="143" value="&lt;span style=&quot;font-size: 18px;&quot;&gt;Seleciona a&lt;br style=&quot;font-size: 18px;&quot;&gt;potência instalada do&amp;nbsp;primeiro ano de análise&lt;/span&gt;" style="rounded=0;whiteSpace=wrap;html=1;strokeWidth=3;fontSize=18;" vertex="1" parent="1">
                    <mxGeometry x="-603.75" y="1301.25" width="213.75" height="140" as="geometry"/>
                </mxCell>
                <mxCell id="144" style="edgeStyle=none;html=1;exitX=0.5;exitY=0;exitDx=0;exitDy=0;entryX=0.5;entryY=1;entryDx=0;entryDy=0;strokeWidth=3;fontSize=18;" edge="1" parent="1" source="145" target="124">
                    <mxGeometry relative="1" as="geometry">
                        <Array as="points">
                            <mxPoint x="-497" y="1491.25"/>
                            <mxPoint x="-200" y="1491.25"/>
                        </Array>
                    </mxGeometry>
                </mxCell>
                <mxCell id="145" value="&lt;font style=&quot;font-size: 18px;&quot;&gt;Seleciona o valor de potência instalada correspondente ao&lt;br style=&quot;font-size: 18px;&quot;&gt;ano seguinte&lt;/font&gt;" style="rounded=0;whiteSpace=wrap;html=1;strokeWidth=3;fontSize=18;" vertex="1" parent="1">
                    <mxGeometry x="-603.75" y="1560" width="213.75" height="112.5" as="geometry"/>
                </mxCell>
                <mxCell id="146" value="&lt;font style=&quot;font-size: 20px;&quot;&gt;NÃO&lt;/font&gt;" style="text;strokeColor=none;align=center;fillColor=none;html=1;verticalAlign=middle;whiteSpace=wrap;rounded=0;fontStyle=1;fontSize=20;" vertex="1" parent="1">
                    <mxGeometry x="630" y="1571.25" width="60" height="30" as="geometry"/>
                </mxCell>
                <mxCell id="147" value="&lt;font style=&quot;font-size: 20px;&quot;&gt;SIM&lt;/font&gt;" style="text;strokeColor=none;align=center;fillColor=none;html=1;verticalAlign=middle;whiteSpace=wrap;rounded=0;fontStyle=1;fontSize=20;" vertex="1" parent="1">
                    <mxGeometry x="280" y="1560" width="60" height="30" as="geometry"/>
                </mxCell>
                <mxCell id="148" style="edgeStyle=none;html=1;exitX=0;exitY=0.5;exitDx=0;exitDy=0;entryX=1;entryY=0.5;entryDx=0;entryDy=0;strokeWidth=3;fontSize=18;" edge="1" parent="1" source="149" target="137">
                    <mxGeometry relative="1" as="geometry"/>
                </mxCell>
                <mxCell id="149" value="&lt;span style=&quot;font-size: 18px;&quot;&gt;Dados armazenados de acordo com o ano e o número de barras sorteadas i&lt;/span&gt;" style="rounded=0;whiteSpace=wrap;html=1;strokeWidth=3;fontSize=18;" vertex="1" parent="1">
                    <mxGeometry x="17.5" y="1771.25" width="215" height="110" as="geometry"/>
                </mxCell>
                <mxCell id="150" value="&lt;font style=&quot;font-size: 20px;&quot;&gt;NÃO&lt;/font&gt;" style="text;strokeColor=none;align=center;fillColor=none;html=1;verticalAlign=middle;whiteSpace=wrap;rounded=0;fontStyle=1;fontSize=20;" vertex="1" parent="1">
                    <mxGeometry x="140" y="1501.25" width="60" height="30" as="geometry"/>
                </mxCell>
                <mxCell id="151" value="&lt;font style=&quot;font-size: 20px;&quot;&gt;SIM&lt;/font&gt;" style="text;strokeColor=none;align=center;fillColor=none;html=1;verticalAlign=middle;whiteSpace=wrap;rounded=0;fontStyle=1;fontSize=20;" vertex="1" parent="1">
                    <mxGeometry x="140" y="1721.25" width="60" height="30" as="geometry"/>
                </mxCell>
                <mxCell id="152" value="&lt;font style=&quot;font-size: 20px;&quot;&gt;NÃO&lt;/font&gt;" style="text;strokeColor=none;align=center;fillColor=none;html=1;verticalAlign=middle;whiteSpace=wrap;rounded=0;fontStyle=1;fontSize=20;" vertex="1" parent="1">
                    <mxGeometry x="-190" y="1701.25" width="60" height="30" as="geometry"/>
                </mxCell>
                <mxCell id="153" value="&lt;font style=&quot;font-size: 20px;&quot;&gt;SIM&lt;/font&gt;" style="text;strokeColor=none;align=center;fillColor=none;html=1;verticalAlign=middle;whiteSpace=wrap;rounded=0;fontStyle=1;fontSize=20;" vertex="1" parent="1">
                    <mxGeometry x="-376.25" y="1766.25" width="60" height="30" as="geometry"/>
                </mxCell>
                <mxCell id="154" value="&lt;font style=&quot;font-size: 20px;&quot;&gt;SIM&lt;/font&gt;" style="text;strokeColor=none;align=center;fillColor=none;html=1;verticalAlign=middle;whiteSpace=wrap;rounded=0;fontStyle=1;fontSize=20;" vertex="1" parent="1">
                    <mxGeometry x="-676.87" y="1766.25" width="60" height="30" as="geometry"/>
                </mxCell>
                <mxCell id="155" value="&lt;font style=&quot;font-size: 20px;&quot;&gt;NÃO&lt;/font&gt;" style="text;strokeColor=none;align=center;fillColor=none;html=1;verticalAlign=middle;whiteSpace=wrap;rounded=0;fontStyle=1;fontSize=20;" vertex="1" parent="1">
                    <mxGeometry x="-490" y="1701.25" width="60" height="30" as="geometry"/>
                </mxCell>
            </root>
        </mxGraphModel>
    </diagram>
</mxfile>